<?plantuml 1.2026.2?><svg xmlns="http://www.w3.org/2000/svg" xmlns:xlink="http://www.w3.org/1999/xlink" contentStyleType="text/css" data-diagram-type="DESCRIPTION" height="312px" preserveAspectRatio="none" style="width:295px;height:312px;background:#FFFFFF;" version="1.1" viewBox="0 0 295 312" width="295px" zoomAndPan="magnify"><defs/><g><!--cluster machine--><g class="cluster" data-qualified-name="machine" data-source-line="2" id="ent0002"><polygon fill="none" points="16,159.5,26,149.5,278,149.5,278,285.5,268,295.5,16,295.5,16,159.5" style="stroke:#181818;stroke-width:1;"/><line style="stroke:#181818;stroke-width:1;" x1="268" x2="278" y1="159.5" y2="149.5"/><line style="stroke:#181818;stroke-width:1;" x1="16" x2="268" y1="159.5" y2="159.5"/><line style="stroke:#181818;stroke-width:1;" x1="268" x2="268" y1="159.5" y2="295.5"/><text fill="#000000" font-family="sans-serif" font-size="14" font-weight="bold" lengthAdjust="spacing" textLength="134.7355" x="75.6322" y="177.4659">Developer Machine</text><text fill="#000000" font-family="sans-serif" font-size="14" font-weight="bold" lengthAdjust="spacing" textLength="186.0173" x="49.9913" y="196.5339">(Linux / macOS / Windows)</text></g><!--entity binary--><g class="entity" data-qualified-name="machine.binary" data-source-line="3" id="ent0003"><rect fill="#F1F1F1" height="68.1358" rx="2.5" ry="2.5" style="stroke:#181818;stroke-width:0.5;" width="148.4996" x="73" y="211.5"/><rect fill="#F1F1F1" height="10" style="stroke:#181818;stroke-width:0.5;" width="15" x="201.4996" y="216.5"/><rect fill="#F1F1F1" height="2" style="stroke:#181818;stroke-width:0.5;" width="4" x="199.4996" y="218.5"/><rect fill="#F1F1F1" height="2" style="stroke:#181818;stroke-width:0.5;" width="4" x="199.4996" y="222.5"/><text fill="#000000" font-family="sans-serif" font-size="14" lengthAdjust="spacing" textLength="89.0396" x="88" y="246.4659">minesweeper</text><text fill="#000000" font-family="sans-serif" font-size="14" lengthAdjust="spacing" textLength="108.4996" x="88" y="265.5339">(C++ executable)</text></g><!--entity user--><g class="entity" data-qualified-name="user" data-source-line="6" id="ent0004"><ellipse cx="146.8089" cy="14" fill="#F1F1F1" rx="8" ry="8" style="stroke:#181818;stroke-width:0.5;"/><path d="M146.8089,22 L146.8089,49 M133.8089,30 L159.8089,30 M146.8089,49 L133.8089,64 M146.8089,49 L159.8089,64" fill="none" style="stroke:#181818;stroke-width:0.5;"/><text fill="#000000" font-family="sans-serif" font-size="14" lengthAdjust="spacing" textLength="30.6179" x="131.5" y="80.4659">User</text></g><!--link user to binary--><g class="link" data-entity-1="ent0004" data-entity-2="ent0003" data-link-type="dependency" data-source-line="8" id="lnk5"><path d="M147,84.74 C147,121.64 147,170.57 147,205.45" fill="none" id="user-to-binary" style="stroke:#181818;stroke-width:1;"/><polygon fill="#181818" points="147,211.45,151,202.45,147,206.45,143,202.45,147,211.45" style="stroke:#181818;stroke-width:1;"/><text fill="#000000" font-family="sans-serif" font-size="13" lengthAdjust="spacing" textLength="122.8501" x="148" y="129.397">Executes (CLI / pipe)</text></g><?plantuml-src BOun2y8m48Nt-nMFJ2sbk3kuL0UXuY3YufAc1mRQIqXQMn7_ksbrkNUyU-_ZnBKCjUSdTyvpm4cRXnM-IrPR6MTiq6jplYIzMMdT57C57HTpYU5DW76zTy8oGFN9YnDp8YL2LHJWcSquwARZNx6neiEBFaJQ32v0NIE7zJAcXMYPAClTFuWj3Yk18xAgFgO_lFMSqnS0?></g></svg>